<svg width="146" height="156" viewBox="0 0 146 156" fill="none" xmlns="http://www.w3.org/2000/svg">
<path d="M80.1525 94.8576L65.0294 125.772C70.8491 124.629 76.7741 124.093 82.7069 124.175C87.8293 124.238 92.9348 124.773 97.957 125.772L87.0913 145.997C67.7362 145.71 48.4443 148.253 29.8397 153.543L57.0231 94.0275L81.7029 39.9453H97.9443L145.639 155.757C134.872 152.244 123.816 149.669 112.597 148.059L90.2557 89.7135L86.9261 81.01L80.1525 94.8576Z" fill="#D6EDF4"/>
<path d="M36.4351 0H32.9784C32.9784 8.66192 29.506 16.97 23.3231 23.1008C17.1403 29.2316 8.75226 32.6842 0 32.7009V35.3672C8.76327 35.3672 17.1676 38.8125 23.3642 44.9451C29.5608 51.0777 33.042 59.3953 33.042 68.0681C33.042 68.3196 33.042 68.5586 33.042 68.8227H36.5368C36.5368 68.5586 36.5368 68.3196 36.5368 68.0681C36.5351 63.7826 37.3866 59.5388 39.0425 55.579C40.6984 51.6193 43.1264 48.0212 46.1877 44.9903C49.249 41.9594 52.8837 39.5552 56.8841 37.9148C60.8845 36.2744 65.1723 35.4301 69.5025 35.4301V32.7009C65.1584 32.7141 60.8545 31.8775 56.8382 30.2392C52.8219 28.6008 49.1724 26.193 46.0994 23.1541C43.0265 20.1153 40.5908 16.5053 38.9322 12.5317C37.2737 8.55808 36.4251 4.29925 36.4351 0ZM34.6941 43.9323L25.0102 34.3359L34.6941 24.752L44.3906 34.3359L34.6941 43.9323Z" fill="#D6EDF4"/>
</svg>
