<svg width="37" height="37" viewBox="0 0 37 37" fill="none" xmlns="http://www.w3.org/2000/svg">
<path d="M16.7178 36.8545C7.52422 36.8545 0.0444336 29.2865 0.0444336 19.9882C0.0444336 10.6899 7.52422 3.11816 16.7178 3.11816C17.8182 3.11816 18.7179 4.02467 18.7179 5.14181V17.9683H31.3949C32.4953 17.9683 33.3949 18.8748 33.3949 19.992C33.3949 29.294 25.9151 36.862 16.7215 36.862L16.7178 36.8545ZM14.6657 7.32721C8.50939 8.34656 4.04084 13.669 4.04084 19.9844C4.04084 27.0559 9.72875 32.8109 16.7178 32.8109C22.9597 32.8109 28.2238 28.2897 29.2275 22.0607L29.2349 22.0043H16.7141C15.6137 22.0043 14.714 21.0978 14.714 19.9807V7.31968L14.6583 7.32721H14.6657Z" fill="#5571FF"/>
<path d="M16.718 3.16337C17.7924 3.16337 18.6697 4.05107 18.6697 5.13812V18.0097H31.3913C32.4657 18.0097 33.3431 18.8974 33.3431 19.9845C33.3431 29.2602 25.8856 36.8056 16.718 36.8056C7.55042 36.8056 0.0929397 29.264 0.0929397 19.9883C0.0929397 10.7126 7.55042 3.16337 16.718 3.16337ZM16.718 32.8599C22.9821 32.8599 28.2648 28.3236 29.276 22.0721L29.2946 21.963H16.7217C15.6473 21.963 14.77 21.0753 14.77 19.9883V7.26333L14.6622 7.28214C8.48354 8.30525 4.00013 13.6465 4.00013 19.9883C4.00013 27.0861 9.70663 32.8599 16.7217 32.8599M16.7217 3.06934C7.49838 3.06934 0 10.6599 0 19.9883C0 29.3166 7.5021 36.9034 16.718 36.9034C25.9339 36.9034 33.436 29.3166 33.436 19.9883C33.436 18.8448 32.5215 17.9195 31.3913 17.9195H18.7627V5.13812C18.7627 3.99465 17.8481 3.06934 16.718 3.06934H16.7217ZM16.7217 32.7658C9.75867 32.7658 4.09307 27.0334 4.09307 19.9883C4.09307 13.6465 8.68429 8.36919 14.677 7.37618V19.9883C14.677 21.1317 15.5916 22.057 16.7217 22.057H29.1868C28.2054 28.1242 22.9896 32.7658 16.7217 32.7658Z" fill="#1CCEB3"/>
<path d="M24.4246 14.4477C23.432 14.4477 22.6216 13.6314 22.6216 12.6234V2.06503C22.6216 0.951649 23.5287 0.0413818 24.6402 0.0413818C27.8559 0.0489047 31.001 1.36917 33.2725 3.6674C35.5439 5.96564 36.8488 9.14781 36.8562 12.3977C36.8562 12.9506 36.648 13.4659 36.2651 13.8534C35.8897 14.2333 35.3915 14.4439 34.8599 14.4439H24.4246V14.4477ZM26.618 10.4041H32.6107L32.5959 10.3439C32.2241 8.89579 31.4806 7.57553 30.4471 6.52985C29.4136 5.48418 28.1087 4.73189 26.6775 4.35575L26.618 4.3407V10.4041Z" fill="#1CCEB3"/>
<path d="M24.6402 0V0.0940358C27.8448 0.101559 30.975 1.41806 33.239 3.70501C35.503 5.99196 36.8042 9.16285 36.8079 12.4014C36.8079 12.9393 36.6034 13.4471 36.2317 13.8233C35.8636 14.1956 35.3766 14.3988 34.8562 14.3988H24.4209C23.4543 14.3988 22.6662 13.6013 22.6662 12.6234V2.06503C22.6662 0.977972 23.551 0.0902744 24.6402 0.0902744V0ZM26.5697 10.453H32.6702L32.6405 10.3364C32.265 8.87698 31.5178 7.55296 30.4806 6.49976C29.4396 5.44655 28.131 4.69051 26.6886 4.31436L26.5734 4.28427V10.4568M24.6402 0C23.5026 0 22.5732 0.91779 22.5732 2.06879V12.6271C22.5732 13.6615 23.4023 14.4966 24.4209 14.4966H34.8562C35.9937 14.4966 36.9046 13.5524 36.9008 12.4014C36.8934 9.14028 35.5848 5.94683 33.3022 3.64107C31.0233 1.33155 27.8708 0.00376143 24.6439 0H24.6402ZM26.6626 10.359V4.40464C28.0716 4.77326 29.3764 5.51802 30.4136 6.56746C31.4508 7.6169 32.1832 8.93716 32.5513 10.359H26.6663H26.6626Z" fill="#1CCEB3"/>
</svg>
