<svg width="38" height="37" viewBox="0 0 38 37" fill="none" xmlns="http://www.w3.org/2000/svg">
<path d="M24.5228 32.7396H21.3442V26.9415C27.0734 24.9701 32.8182 15.3415 33.0353 2.16895C33.043 1.59573 32.826 1.04574 32.4228 0.639066C32.0235 0.232388 31.477 0 30.9033 0H7.5133C6.93959 0 6.39303 0.232388 5.99376 0.639066C5.59062 1.04574 5.36967 1.59573 5.3813 2.16895C5.60225 15.3415 11.3509 24.9701 17.0802 26.9415V32.7396H13.9054C12.727 32.7396 11.7734 33.6923 11.7734 34.8698C11.7734 36.0472 12.727 37 13.9054 37H24.5228C25.7012 37 26.6548 36.0433 26.6548 34.8698C26.6548 33.6962 25.7012 32.7396 24.5228 32.7396ZM9.73833 4.26044H28.6821C28.279 10.1166 26.678 14.8186 24.7941 18.0527C22.9102 21.2867 20.7433 23.0567 19.2122 23.0567C16.146 23.0567 10.5446 15.9767 9.73833 4.26044Z" fill="url(#paint0_linear_350_3774)"/>
<path d="M8.69593 21.9219C8.36644 21.9568 8.04083 21.9723 7.71909 21.9723C4.88934 21.9723 2.24954 20.6941 0.927698 18.4787C-0.122797 16.7125 -0.289481 14.4468 0.470287 12.2546C1.03624 10.6124 2.07123 9.18706 3.43183 8.12195C3.7807 9.84162 4.21098 11.5148 4.71878 13.1222C4.6335 13.2926 4.55985 13.4707 4.49783 13.6489C4.15671 14.6366 4.1916 15.6242 4.59086 16.2981C4.9126 16.8404 5.55995 17.2935 6.38174 17.5337C6.87404 18.6491 7.40898 19.7181 7.98656 20.7367C8.21914 21.1434 8.45172 21.5385 8.69593 21.9219Z" fill="url(#paint1_linear_350_3774)"/>
<path d="M37.0707 18.4128C35.7488 20.6282 33.109 21.9064 30.2793 21.9064C30.07 21.9064 29.8568 21.8986 29.6436 21.8831C29.8102 21.6159 29.9692 21.3409 30.1281 21.062C30.791 19.8923 31.4034 18.6491 31.9539 17.3516C32.6167 17.0998 33.1323 16.697 33.4075 16.2322C33.8068 15.5622 33.8417 14.5707 33.5005 13.5869C33.4734 13.5133 33.4463 13.4397 33.4191 13.37C33.9424 11.7045 34.3805 9.97326 34.7332 8.18774C36.0124 9.24124 36.9854 10.6201 37.5281 12.1926C38.2878 14.3809 38.1212 16.6505 37.0707 18.4128Z" fill="url(#paint2_linear_350_3774)"/>
<defs>
<linearGradient id="paint0_linear_350_3774" x1="11.6416" y1="-3.18371" x2="29.8206" y2="33.5069" gradientUnits="userSpaceOnUse">
<stop stop-color="#17CDB6"/>
<stop offset="1" stop-color="#3AA1C2"/>
</linearGradient>
<linearGradient id="paint1_linear_350_3774" x1="-2.52614" y1="3.83439" x2="15.6529" y2="40.525" gradientUnits="userSpaceOnUse">
<stop stop-color="#17CDB6"/>
<stop offset="1" stop-color="#3AA1C2"/>
</linearGradient>
<linearGradient id="paint2_linear_350_3774" x1="21.2357" y1="-7.93609" x2="39.4109" y2="28.7545" gradientUnits="userSpaceOnUse">
<stop stop-color="#17CDB6"/>
<stop offset="1" stop-color="#3AA1C2"/>
</linearGradient>
</defs>
</svg>
