<svg width="38" height="38" viewBox="0 0 38 38" fill="none" xmlns="http://www.w3.org/2000/svg">
<path d="M5.0918 13.3707L5.14257 13.3378H5.0918V13.3707Z" fill="url(#paint0_linear_350_3758)"/>
<path d="M32.9106 13.3707V13.3378H32.8599L32.9106 13.3707Z" fill="url(#paint1_linear_350_3758)"/>
<path d="M28.9218 30.6129C28.9218 31.9446 27.8483 33.0238 26.5319 33.0238H11.4709C10.1508 33.0238 9.08099 31.9446 9.08099 30.6129V16.056L5.0918 18.5108V30.6129C5.0918 34.1616 7.95314 37.0481 11.4709 37.0481H26.5319C30.0496 37.0481 32.911 34.1616 32.911 30.6129V18.5108L28.9218 16.056V30.6129Z" fill="url(#paint2_linear_350_3758)"/>
<path d="M36.9581 10.6817L20.1672 0.342978L20.1346 0.321027C20.1056 0.302735 20.0766 0.288101 20.0476 0.273467C20.0077 0.251517 19.9714 0.229566 19.9279 0.211274C19.8771 0.185665 19.8227 0.160056 19.7683 0.141764C19.7357 0.130789 19.7031 0.116155 19.6704 0.108838C19.6233 0.0905461 19.5761 0.0759124 19.5253 0.0649371C19.4855 0.0539618 19.4456 0.046645 19.4057 0.0393281C19.3223 0.021036 19.2352 0.0100607 19.1482 0.00274382C19.0503 -0.000914607 18.9487 -0.000914607 18.8508 0.00274382C18.7638 0.0100607 18.6804 0.021036 18.5933 0.0393281C18.5498 0.046645 18.5063 0.0576202 18.4628 0.0685955C18.4156 0.0795708 18.3721 0.0942045 18.3286 0.108838C18.2923 0.119814 18.2597 0.130789 18.2234 0.145423C18.0856 0.200299 17.9551 0.266151 17.8281 0.346636L1.04451 10.6817C0.0182009 11.3146 -0.308188 12.6646 0.319203 13.6999C0.729002 14.3767 1.44706 14.7499 2.17962 14.7499C2.56403 14.7499 2.9557 14.6474 3.3111 14.4279L19.0031 4.76968L34.6915 14.4279C35.0433 14.6474 35.435 14.7499 35.823 14.7499C36.5556 14.7499 37.27 14.3767 37.6798 13.6999C38.3072 12.6646 37.9844 11.3146 36.9581 10.6817Z" fill="url(#paint3_linear_350_3758)"/>
<defs>
<linearGradient id="paint0_linear_350_3758" x1="-45.7234" y1="70.9508" x2="15.2673" y2="3.03548" gradientUnits="userSpaceOnUse">
<stop stop-color="#17CDB6"/>
<stop offset="1" stop-color="#3AA1C2"/>
</linearGradient>
<linearGradient id="paint1_linear_350_3758" x1="3.40162" y1="46.7649" x2="38.7876" y2="7.36051" gradientUnits="userSpaceOnUse">
<stop stop-color="#17CDB6"/>
<stop offset="1" stop-color="#3AA1C2"/>
</linearGradient>
<linearGradient id="paint2_linear_350_3758" x1="-25830.3" y1="29319.6" x2="5184.44" y2="-5217.91" gradientUnits="userSpaceOnUse">
<stop stop-color="#17CDB6"/>
<stop offset="1" stop-color="#3AA1C2"/>
</linearGradient>
<linearGradient id="paint3_linear_350_3758" x1="-23325.6" y1="26467.9" x2="4684.04" y2="-4723.16" gradientUnits="userSpaceOnUse">
<stop stop-color="#17CDB6"/>
<stop offset="1" stop-color="#3AA1C2"/>
</linearGradient>
</defs>
</svg>
