<svg width="43" height="36" viewBox="0 0 43 36" fill="none" xmlns="http://www.w3.org/2000/svg">
<path fill-rule="evenodd" clip-rule="evenodd" d="M21.5 3C26.7467 3 31 7.25329 31 12.5C31 17.7467 26.7467 22 21.5 22H14.1875L14.2209 26.5846L8.78631 21.2467C5.38506 19.8008 3 16.4289 3 12.5C3 7.25329 7.2533 3 12.5 3H21.5Z" fill="#6C40E4"/>
<path d="M14.1875 22L11.6876 22.0182L11.6693 19.5H14.1875V22ZM14.2209 26.5846L16.7208 26.5664L16.7647 32.5874L12.4691 28.3682L14.2209 26.5846ZM8.78631 21.2467L9.76439 18.946L10.2003 19.1313L10.5381 19.4632L8.78631 21.2467ZM28.5 12.5C28.5 8.63401 25.366 5.5 21.5 5.5V0.5C28.1274 0.5 33.5 5.87258 33.5 12.5H28.5ZM21.5 19.5C25.366 19.5 28.5 16.366 28.5 12.5H33.5C33.5 19.1274 28.1274 24.5 21.5 24.5V19.5ZM14.1875 19.5H21.5V24.5H14.1875V19.5ZM11.721 26.6028L11.6876 22.0182L16.6875 21.9818L16.7208 26.5664L11.721 26.6028ZM10.5381 19.4632L15.9727 24.8011L12.4691 28.3682L7.03448 23.0303L10.5381 19.4632ZM5.5 12.5C5.5 15.3911 7.25319 17.8784 9.76439 18.946L7.80823 23.5474C3.51693 21.7231 0.5 17.4668 0.5 12.5H5.5ZM12.5 5.5C8.63401 5.5 5.5 8.63401 5.5 12.5H0.5C0.5 5.87258 5.87258 0.5 12.5 0.5V5.5ZM21.5 5.5H12.5V0.5H21.5V5.5Z" fill="url(#paint0_linear_328_9778)"/>
<path fill-rule="evenodd" clip-rule="evenodd" d="M26.2505 12C22.2462 12 19 15.2462 19 19.2505C19 23.2548 22.2462 26.501 26.2505 26.501H32.1787L32.1532 30L36.6463 25.5869C38.8676 24.3478 40.3699 21.9746 40.3699 19.2505C40.3699 15.2462 37.1237 12 33.1194 12H26.2505Z" fill="#6A40E4"/>
<path d="M32.1787 26.501L34.6786 26.5192L34.6969 24.001H32.1787V26.501ZM32.1532 30L29.6533 29.9818L29.6095 36.0028L33.905 31.7836L32.1532 30ZM36.6463 25.5869L35.4284 23.4036L35.1345 23.5675L34.8945 23.8033L36.6463 25.5869ZM21.5 19.2505C21.5 16.6269 23.6269 14.5 26.2505 14.5V9.5C20.8654 9.5 16.5 13.8654 16.5 19.2505H21.5ZM26.2505 24.001C23.6269 24.001 21.5 21.8741 21.5 19.2505H16.5C16.5 24.6355 20.8654 29.001 26.2505 29.001V24.001ZM32.1787 24.001H26.2505V29.001H32.1787V24.001ZM34.6531 30.0182L34.6786 26.5192L29.6787 26.4828L29.6533 29.9818L34.6531 30.0182ZM34.8945 23.8033L30.4014 28.2165L33.905 31.7836L38.3981 27.3704L34.8945 23.8033ZM37.8699 19.2505C37.8699 21.032 36.8903 22.5881 35.4284 23.4036L37.8642 27.7702C40.8449 26.1075 42.8699 22.9172 42.8699 19.2505H37.8699ZM33.1194 14.5C35.743 14.5 37.8699 16.6269 37.8699 19.2505H42.8699C42.8699 13.8654 38.5044 9.5 33.1194 9.5V14.5ZM26.2505 14.5H33.1194V9.5H26.2505V14.5Z" fill="url(#paint1_linear_328_9778)"/>
<defs>
<linearGradient id="paint0_linear_328_9778" x1="31" y1="14.7281" x2="3" y2="14.7281" gradientUnits="userSpaceOnUse">
<stop stop-color="#28C2AC"/>
<stop offset="1" stop-color="#3BA2C1"/>
</linearGradient>
<linearGradient id="paint1_linear_328_9778" x1="19" y1="20.951" x2="40.3699" y2="20.951" gradientUnits="userSpaceOnUse">
<stop stop-color="#28C2AC"/>
<stop offset="1" stop-color="#3BA2C1"/>
</linearGradient>
</defs>
</svg>
