<svg width="31" height="38" viewBox="0 0 31 38" fill="none" xmlns="http://www.w3.org/2000/svg">
<path d="M15.7988 36.9963C15.6913 36.9963 15.591 36.9963 15.4943 36.9963C11.6038 36.9669 2.41129 36.4045 1.14311 31.8209C0.709642 30.255 1.2685 28.351 2.7158 26.4616C5.2414 23.1608 10.4108 19.9225 16.2573 20.1504C21.9176 20.3673 26.8219 23.8004 28.9821 26.9027C30.2324 28.6965 30.6658 30.4351 30.2288 31.9238C28.8674 36.581 19.2128 37 15.7988 37V36.9963ZM4.94048 30.7108C5.46351 31.5672 9.61553 33.0155 16.2609 32.953C22.5839 32.8905 26.0373 31.4827 26.4529 30.7586C26.4565 30.5821 26.3096 29.8764 25.4283 28.7921C23.655 26.6124 20.0834 24.3444 16.1105 24.1937C11.8116 24.0357 8.13599 26.355 6.29105 28.3951C5.16259 29.6448 4.94406 30.4939 4.94048 30.7182V30.7108Z" fill="#5571FF" stroke="#1CCEB3" stroke-width="0.25" stroke-miterlimit="10"/>
<path d="M15.695 16.4011C11.2994 16.4011 7.72412 12.7327 7.72412 8.22259C7.72412 3.71246 11.2994 0.0440674 15.695 0.0440674C20.0906 0.0440674 23.6659 3.71246 23.6659 8.22259C23.6659 12.7327 20.0906 16.4011 15.695 16.4011ZM15.695 3.99549C13.4237 3.99549 11.5752 5.89217 11.5752 8.22259C11.5752 10.553 13.4237 12.4497 15.695 12.4497C17.9663 12.4497 19.8148 10.553 19.8148 8.22259C19.8148 5.89217 17.9663 3.99549 15.695 3.99549Z" fill="#5571FF"/>
<path d="M15.695 0.0918935C20.0656 0.0918935 23.6229 3.7419 23.6229 8.22631C23.6229 12.7107 20.0656 16.3607 15.695 16.3607C11.3245 16.3607 7.76713 12.7107 7.76713 8.22631C7.76713 3.7419 11.3245 0.0918935 15.695 0.0918935ZM15.695 12.4975C17.9914 12.4975 19.8614 10.5788 19.8614 8.22263C19.8614 5.86648 17.9914 3.94775 15.695 3.94775C13.3987 3.94775 11.5287 5.86648 11.5287 8.22263C11.5287 10.5788 13.3987 12.4975 15.695 12.4975ZM15.695 0C11.2779 0 7.68115 3.68677 7.68115 8.22263C7.68115 12.7585 11.2779 16.4489 15.6986 16.4489C20.1193 16.4489 23.7161 12.7585 23.7161 8.22263C23.7161 3.68677 20.1157 0 15.695 0ZM15.695 12.4056C13.4488 12.4056 11.6182 10.531 11.6182 8.22263C11.6182 5.91427 13.4453 4.03964 15.695 4.03964C17.9448 4.03964 19.7718 5.91427 19.7718 8.22263C19.7718 10.531 17.9448 12.4056 15.695 12.4056Z" fill="#1CCEB3"/>
</svg>
