<svg width="13" height="13" viewBox="0 0 13 13" fill="none" xmlns="http://www.w3.org/2000/svg">
<path d="M4.62555 11.1715C4.62555 10.951 4.62555 10.7304 4.62962 10.5099C4.62962 10.3134 4.68241 10.2573 4.88953 10.2533C5.06823 10.2493 5.24692 10.2493 5.42562 10.2533C5.52309 10.2533 5.55964 10.2252 5.55964 10.1249C5.55964 9.32698 5.55964 8.52501 5.55964 7.72705C5.55964 7.64685 5.53527 7.61477 5.44592 7.59071C4.48747 7.31804 3.76863 6.72458 3.27316 5.89454C3.11072 5.62186 2.8711 5.59379 2.64773 5.50959C2.07104 5.29706 1.59994 4.94821 1.18163 4.51514C0.698344 4.01792 0.369384 3.43648 0.19069 2.77486C0.137894 2.58238 0.101343 2.3859 0.0891593 2.18941C0.0688532 1.8165 -0.0245551 1.45561 0.00387348 1.08269C0.0201184 0.858138 0.174445 0.669674 0.385629 0.641605C1.12477 0.641605 1.85986 0.641605 2.599 0.641605C2.65992 0.641605 2.74927 0.673684 2.76145 0.561407C2.77363 0.433092 2.73302 0.300766 2.78988 0.17646C2.82237 0.108292 2.86704 0.048144 2.94827 0.0321045C3.01325 0.0321045 3.07416 0.0401242 3.13914 0.0401242C4.987 0.0401242 6.83486 0.0401242 8.68272 0.0401242C9.14977 0.0401242 9.61275 0.0361144 10.0798 0.0321045C10.1976 0.0641835 10.2341 0.148391 10.2301 0.260667C10.2301 0.360914 10.2301 0.461161 10.2301 0.561407C10.2625 0.629575 10.3275 0.609526 10.3803 0.609526C11.1195 0.609526 11.8545 0.609526 12.5937 0.609526C12.9754 0.77794 13.0364 0.934325 12.9958 1.33531C12.9633 1.6561 12.9227 1.97689 12.9064 2.30169C12.8902 2.66659 12.7805 3.01946 12.6424 3.3603C12.2322 4.34673 11.4931 5.00434 10.5306 5.44142C10.3722 5.5136 10.2057 5.57776 10.0392 5.60983C9.89703 5.6379 9.83205 5.72211 9.77113 5.83439C9.44217 6.44389 8.95889 6.91304 8.34564 7.24586C8.06948 7.39423 7.78519 7.52655 7.47654 7.59472C7.39125 7.71502 7.44811 7.84734 7.43999 7.97566C7.43999 8.16412 7.43999 8.35259 7.43999 8.54105C7.43999 8.58115 7.43999 8.61724 7.43999 8.65734C7.43999 8.82174 7.43999 8.98214 7.43999 9.14654C7.43999 9.18664 7.43999 9.22273 7.43999 9.26283C7.43999 9.5756 7.43999 9.88837 7.43999 10.2011C7.44811 10.2172 7.46029 10.2292 7.46842 10.2452C7.72427 10.2653 7.98013 10.2252 8.23599 10.2693C8.25223 10.3054 8.28066 10.3214 8.31721 10.3174C8.3294 10.3335 8.34158 10.3455 8.35376 10.3615C8.36189 10.3736 8.36595 10.3816 8.37407 10.3936C8.38219 10.6543 8.39032 10.9149 8.39844 11.1795C8.41874 11.2196 8.4553 11.2237 8.49591 11.2237C8.82487 11.2237 9.14977 11.2156 9.47873 11.2116C9.53558 11.2237 9.55995 11.2597 9.57619 11.3119C9.57619 11.8332 9.57619 12.3504 9.57619 12.8717C9.55183 12.9359 9.51122 12.976 9.43811 12.972C9.3447 12.972 9.24724 12.9599 9.15383 12.9599C7.72021 12.9599 6.2866 12.9599 4.85298 12.9599C4.42655 12.9599 4.00012 12.9639 3.5737 12.9679C3.47216 12.9399 3.43155 12.8717 3.43155 12.7715C3.43155 12.2943 3.43561 11.8171 3.43967 11.3359C3.4478 11.3199 3.45592 11.3079 3.45998 11.2918C3.48029 11.2437 3.51278 11.2116 3.56557 11.2076C3.89453 11.2116 4.22349 11.2156 4.55245 11.2196C4.59306 11.2196 4.62962 11.2116 4.6418 11.1675L4.62555 11.1715ZM2.72084 1.43556C2.69241 1.42353 2.66398 1.40348 2.63555 1.40348C2.09135 1.40348 1.5512 1.40348 1.007 1.40348C0.978569 1.40348 0.95014 1.42353 0.921712 1.43155C0.877038 1.47165 0.889222 1.52378 0.889222 1.57189C0.897344 2.11724 0.998875 2.64253 1.24661 3.13975C1.58369 3.82143 2.11165 4.2946 2.77769 4.65148C2.80612 4.5793 2.78988 4.52717 2.76551 4.47504C2.74114 4.42291 2.76551 4.36677 2.79394 4.31465L2.78176 4.26252C2.78176 4.26252 2.78176 4.22643 2.78176 4.21039C2.78582 4.17831 2.79394 4.15024 2.79394 4.11816C2.79394 3.2801 2.79394 2.44204 2.79394 1.60397C2.79394 1.55987 2.80206 1.51576 2.76145 1.47967C2.7452 1.46363 2.72896 1.4516 2.71678 1.43556H2.72084ZM10.2504 1.47967C10.2138 1.51175 10.2179 1.55987 10.2179 1.60397C10.2179 2.47011 10.2179 3.33624 10.2219 4.20237C10.2057 4.30663 10.2422 4.41489 10.1935 4.51915C10.1773 4.55524 10.161 4.60737 10.2138 4.63544C10.2504 4.65549 10.2828 4.62341 10.3153 4.60737C10.8067 4.37479 11.1966 4.02594 11.5256 3.60089C11.7855 3.26406 11.948 2.8751 12.0089 2.46209C12.0495 2.18541 12.0982 1.90872 12.1145 1.62803C12.1226 1.48769 12.1145 1.43957 11.9601 1.43957C11.4444 1.44759 10.9286 1.43957 10.4128 1.43957C10.356 1.43957 10.295 1.42754 10.2504 1.47566V1.47967ZM5.56776 7.18972C5.56776 7.18972 5.53121 7.15764 5.5109 7.14561C4.99919 6.80478 4.56057 6.39577 4.2641 5.85043C3.94733 5.269 3.74021 4.65949 3.74833 3.98584C3.76051 2.90317 3.74833 1.82051 3.74833 0.737842C3.74833 0.264677 3.74833 0.272697 3.2691 0.264677C3.09853 0.264677 3.05386 0.312795 3.05792 0.4772C3.06604 1.63605 3.06198 2.79491 3.05792 3.95376C3.05792 4.11816 3.09041 4.27856 3.1229 4.43494C3.30972 5.32914 3.76051 6.06696 4.48341 6.63636C4.80019 6.88497 5.15758 7.07745 5.5637 7.18972H5.56776ZM4.58494 12.7715C4.84486 12.7715 5.10478 12.7715 5.36876 12.7715C5.47435 12.7715 5.51496 12.7434 5.51496 12.6311C5.5109 12.2622 5.5109 11.8893 5.51496 11.5204C5.51496 11.4201 5.4906 11.372 5.37688 11.372C4.85704 11.372 4.33315 11.372 3.81331 11.372C3.71584 11.372 3.67523 11.4001 3.67523 11.5003C3.67523 11.8773 3.67929 12.2542 3.67523 12.6311C3.67523 12.7394 3.7199 12.7715 3.82143 12.7715C4.07729 12.7675 4.32908 12.7715 4.58494 12.7715ZM5.81956 8.94605C5.81956 9.33099 5.82362 9.71193 5.81956 10.0969C5.81956 10.2332 5.88454 10.2573 5.99419 10.2452C6.0876 10.2372 6.20537 10.2853 6.20537 10.1129C6.20131 9.35104 6.20131 8.59318 6.20537 7.8313C6.20537 7.66289 6.09978 7.68294 5.98607 7.67492C5.86017 7.6669 5.81956 7.71101 5.81956 7.83531C5.82768 8.20422 5.81956 8.57714 5.81956 8.94605ZM5.5109 11.1876C5.68147 11.1876 5.85611 11.1876 6.02668 11.1876C6.12415 11.1876 6.16882 11.1595 6.16476 11.0592C6.1607 10.9029 6.16476 10.7465 6.16476 10.5861C6.16476 10.4939 6.12415 10.4658 6.0348 10.4658C5.6896 10.4658 5.34439 10.4658 5.00325 10.4658C4.8936 10.4658 4.85704 10.5219 4.86111 10.6182C4.86111 10.7625 4.86517 10.9069 4.86111 11.0512C4.86111 11.1515 4.89766 11.1876 4.99513 11.1836C5.1657 11.1795 5.34033 11.1836 5.5109 11.1836V11.1876Z" fill="#F2B332"/>
<path d="M10.0759 0.0361101C9.60882 0.0361101 9.14584 0.0441299 8.67879 0.0441299C6.83093 0.0441299 4.98307 0.0441299 3.13521 0.0441299C3.07023 0.0441299 3.00932 0.04012 2.94434 0.0361101C3.00525 -0.0120083 3.07836 0.00403116 3.1474 0.00403116C5.39732 0.00403116 7.64318 0.00403116 9.8931 0.00403116C9.95402 0.00403116 10.0231 -0.0120083 10.0759 0.0361101Z" fill="#F8D16A"/>
<path d="M3.55744 12.968C3.98387 12.968 4.4103 12.96 4.83673 12.96C6.27034 12.96 7.70396 12.96 9.13757 12.96C9.23098 12.96 9.32845 12.968 9.42186 12.972C9.365 13.0121 9.30002 13.0001 9.23504 13.0001C7.40749 13.0001 5.57993 13.0001 3.75238 13.0001C3.68334 13.0001 3.61023 13.0201 3.54932 12.972L3.55744 12.968Z" fill="#F8D16A"/>
<path d="M2.75766 0.56543C2.74547 0.677706 2.66019 0.641617 2.59521 0.645627C1.85606 0.645627 1.12098 0.645627 0.381836 0.645627C0.442754 0.54939 0.540224 0.581469 0.621449 0.581469C1.33216 0.577459 2.04288 0.573449 2.75359 0.56944L2.75766 0.56543Z" fill="#F8D16A"/>
<path d="M12.5897 0.60952C11.8506 0.60952 11.1155 0.60952 10.3763 0.60952C10.3235 0.60952 10.2586 0.629569 10.2261 0.561401C10.949 0.565411 11.6678 0.569421 12.3907 0.577441C12.4598 0.577441 12.5329 0.557392 12.5897 0.60952Z" fill="#F8D16A"/>
<path d="M9.56412 12.8677C9.56412 12.3464 9.56412 11.8291 9.56412 11.3079C9.60473 11.3279 9.60067 11.368 9.60067 11.4041C9.60067 11.8532 9.60067 12.3023 9.60067 12.7474C9.60067 12.7875 9.60879 12.8356 9.56006 12.8637L9.56412 12.8677Z" fill="#F8D16A"/>
<path d="M4.62554 11.1715C4.61336 11.2156 4.57681 11.2236 4.5362 11.2236C4.20724 11.2196 3.87828 11.2156 3.54932 11.2116C3.77268 11.1474 4.00011 11.1956 4.22754 11.1835C4.36156 11.1755 4.49152 11.1755 4.62554 11.1715Z" fill="#F8D16A"/>
<path d="M9.46652 11.2117C9.13756 11.2117 8.81266 11.2197 8.4837 11.2237C8.44715 11.2237 8.40654 11.2237 8.38623 11.1796C8.67864 11.1796 8.97105 11.1796 9.26346 11.1796C9.3325 11.1796 9.4056 11.1595 9.46652 11.2117Z" fill="#F8D16A"/>
<path d="M7.43201 7.97566C7.44014 7.84735 7.38328 7.71502 7.46856 7.59473C7.4442 7.71903 7.49293 7.85136 7.43201 7.97566Z" fill="#F8D16A"/>
<path d="M7.43213 8.6573C7.43213 8.6172 7.43213 8.58111 7.43213 8.54102C7.46868 8.58111 7.46868 8.6172 7.43213 8.6573Z" fill="#F8D16A"/>
<path d="M7.43213 9.25886C7.43213 9.21877 7.43213 9.18268 7.43213 9.14258C7.46868 9.18268 7.46868 9.21877 7.43213 9.25886Z" fill="#F8D16A"/>
<path d="M8.30925 10.3175C8.2727 10.3175 8.24427 10.3055 8.22803 10.2694C8.2727 10.2573 8.29301 10.2814 8.30925 10.3175Z" fill="#F8D16A"/>
<path d="M7.46056 10.2453C7.46056 10.2453 7.44025 10.2172 7.43213 10.2012C7.44025 10.2172 7.45244 10.2292 7.46056 10.2453Z" fill="#F8D16A"/>
<path d="M8.36601 10.3937C8.36601 10.3937 8.35383 10.3736 8.3457 10.3616C8.36601 10.3656 8.37413 10.3736 8.36601 10.3937Z" fill="#F8D16A"/>
<path d="M3.44804 11.2959C3.44804 11.2959 3.4318 11.324 3.42773 11.34C3.43586 11.324 3.44398 11.3119 3.44804 11.2959Z" fill="#F8D16A"/>
<path d="M5.56779 7.18979C5.16167 7.07751 4.80834 6.88905 4.4875 6.63642C3.7646 6.06702 3.30975 5.32921 3.12699 4.435C3.0945 4.27461 3.06201 4.11822 3.06201 3.95382C3.06201 2.79497 3.06607 1.63611 3.06201 0.477262C3.06201 0.312857 3.10262 0.260729 3.2732 0.264739C3.75242 0.272758 3.75242 0.264739 3.75242 0.737903C3.75242 1.82057 3.76054 2.90323 3.75242 3.9859C3.7443 4.65956 3.95142 5.26505 4.2682 5.85049C4.56467 6.39583 5.00328 6.80083 5.515 7.14568C5.5353 7.15771 5.55155 7.17375 5.57185 7.18979H5.56779Z" fill="#F8D16A"/>
<path d="M4.58917 12.7715C4.33331 12.7715 4.08151 12.7715 3.82566 12.7715C3.72006 12.7715 3.67539 12.7434 3.67945 12.6312C3.68351 12.2542 3.67945 11.8773 3.67945 11.5004C3.67945 11.4001 3.72006 11.3721 3.81753 11.3721C4.33737 11.3721 4.86127 11.3721 5.38111 11.3721C5.49482 11.3721 5.51919 11.4202 5.51919 11.5204C5.51919 11.8893 5.51513 12.2623 5.51919 12.6312C5.51919 12.7394 5.47452 12.7715 5.37299 12.7715C5.11307 12.7675 4.85315 12.7715 4.58917 12.7715Z" fill="#F8D16A"/>
<path d="M5.8239 8.94209C5.8239 8.57318 5.82796 8.20026 5.8239 7.83135C5.8239 7.70705 5.86451 7.66294 5.99041 7.67096C6.10006 7.67898 6.20972 7.66294 6.20972 7.82734C6.20972 8.58922 6.20972 9.34708 6.20972 10.109C6.20972 10.2814 6.09194 10.2333 5.99853 10.2413C5.88888 10.2533 5.81984 10.2293 5.8239 10.0929C5.83202 9.70797 5.8239 9.32703 5.8239 8.94209Z" fill="#F8D16A"/>
<path d="M5.51482 11.1836C5.34425 11.1836 5.16961 11.1836 4.99904 11.1836C4.90157 11.1836 4.86096 11.1515 4.86502 11.0513C4.86908 10.9069 4.86502 10.7626 4.86502 10.6182C4.86502 10.5179 4.90157 10.4658 5.00717 10.4658C5.35237 10.4658 5.69757 10.4658 6.03872 10.4658C6.124 10.4658 6.16868 10.4939 6.16868 10.5861C6.16868 10.7425 6.16462 10.9029 6.16868 11.0593C6.16868 11.1595 6.12807 11.1916 6.0306 11.1876C5.86002 11.1836 5.68539 11.1876 5.51482 11.1876V11.1836Z" fill="#F8D16A"/>
<path d="M2.78609 4.20643C2.77796 4.18237 2.76172 4.15831 2.76172 4.13826C2.76172 3.25208 2.76172 2.36189 2.76984 1.47571C2.80639 1.5118 2.80233 1.55591 2.80233 1.60001C2.80233 2.43808 2.80233 3.27614 2.80233 4.1142C2.80233 4.14628 2.79421 4.17435 2.79015 4.20643H2.78609Z" fill="#F8D16A"/>
<path d="M10.2543 1.47571C10.2543 2.34986 10.2543 3.22401 10.2584 4.09415C10.2584 4.13024 10.2584 4.17034 10.2259 4.19841C10.2259 3.33228 10.2259 2.46615 10.2219 1.60001C10.2219 1.55591 10.2137 1.5118 10.2543 1.47571Z" fill="#F8D16A"/>
<path d="M2.721 1.43554C2.11994 1.44757 1.52294 1.45559 0.921875 1.43554C0.950304 1.42351 0.978732 1.40747 1.00716 1.40747C1.55137 1.40747 2.09151 1.40747 2.63571 1.40747C2.66414 1.40747 2.69257 1.42752 2.721 1.43955V1.43554Z" fill="#F8D16A"/>
<path d="M2.79823 4.31067C2.77386 4.29864 2.76574 4.2826 2.7901 4.25854C2.7901 4.27458 2.79823 4.29062 2.79823 4.31067Z" fill="#F8D16A"/>
</svg>
