<svg width="43" height="44" viewBox="0 0 43 44" fill="none" xmlns="http://www.w3.org/2000/svg">
<g clip-path="url(#clip0_328_9873)">
<path d="M15.3004 37.4519C15.3004 36.7224 15.3004 35.9929 15.3138 35.2634C15.3138 34.6135 15.4884 34.4278 16.1735 34.4145C16.7646 34.4013 17.3557 34.4013 17.9467 34.4145C18.2691 34.4145 18.39 34.3217 18.39 33.9901C18.39 31.3507 18.39 28.698 18.39 26.0586C18.39 25.7933 18.3094 25.6872 18.0139 25.6076C14.8436 24.7057 12.4659 22.7427 10.8271 19.9972C10.2897 19.0953 9.49718 19.0024 8.75834 18.7239C6.85081 18.0209 5.29255 16.867 3.90892 15.4346C2.31036 13.7899 1.22226 11.8667 0.631195 9.67826C0.456562 9.04161 0.335662 8.39171 0.295362 7.7418C0.228196 6.5083 -0.0807701 5.31459 0.013263 4.08109C0.0669962 3.33834 0.577462 2.71496 1.27599 2.62212C3.72085 2.62212 6.15228 2.62212 8.59714 2.62212C8.79864 2.62212 9.09418 2.72823 9.13448 2.35685C9.17478 1.93242 9.04044 1.49473 9.22851 1.08356C9.33598 0.858084 9.48374 0.659133 9.75241 0.606079C9.96734 0.606079 10.1688 0.632606 10.3838 0.632606C16.4959 0.632606 22.6081 0.632606 28.7202 0.632606C30.2651 0.632606 31.7965 0.619343 33.3413 0.606079C33.7309 0.712186 33.8518 0.990718 33.8383 1.36209C33.8383 1.69368 33.8383 2.02526 33.8383 2.35685C33.9458 2.58233 34.1607 2.51601 34.3354 2.51601C36.7802 2.51601 39.2116 2.51601 41.6565 2.51601C42.9192 3.07307 43.1207 3.59035 42.9864 4.91669C42.8789 5.97776 42.7446 7.03884 42.6909 8.11317C42.6371 9.32014 42.2744 10.4873 41.8177 11.6147C40.4609 14.8775 38.0161 17.0527 34.8324 18.4984C34.3085 18.7372 33.7577 18.9494 33.207 19.0555C32.7368 19.1483 32.5219 19.4269 32.3204 19.7982C31.2323 21.8143 29.6337 23.3661 27.6053 24.467C26.6918 24.9577 25.7515 25.3954 24.7305 25.6209C24.4484 26.0188 24.6365 26.4565 24.6096 26.8809C24.6096 27.5043 24.6096 28.1277 24.6096 28.7511C24.6096 28.8837 24.6096 29.0031 24.6096 29.1357C24.6096 29.6795 24.6096 30.21 24.6096 30.7538C24.6096 30.8865 24.6096 31.0058 24.6096 31.1385C24.6096 32.173 24.6096 33.2076 24.6096 34.2421C24.6365 34.2952 24.6768 34.335 24.7037 34.388C25.55 34.4543 26.3963 34.3217 27.2426 34.4676C27.2963 34.587 27.3903 34.64 27.5112 34.6267C27.5515 34.6798 27.5918 34.7196 27.6321 34.7726C27.659 34.8124 27.6724 34.839 27.6993 34.8788C27.7262 35.7409 27.753 36.603 27.7799 37.4784C27.8471 37.611 27.968 37.6243 28.1023 37.6243C29.1904 37.6243 30.2651 37.5978 31.3532 37.5845C31.5412 37.6243 31.6218 37.7436 31.6756 37.9161C31.6756 39.6403 31.6756 41.3513 31.6756 43.0755C31.595 43.2878 31.4606 43.4204 31.2188 43.4071C30.9099 43.4071 30.5875 43.3673 30.2785 43.3673C25.5365 43.3673 20.7946 43.3673 16.0526 43.3673C14.6421 43.3673 13.2316 43.3806 11.8211 43.3939C11.4853 43.301 11.351 43.0755 11.351 42.744C11.351 41.1656 11.3644 39.5873 11.3778 37.9957C11.4047 37.9426 11.4316 37.9028 11.445 37.8498C11.5122 37.6906 11.6196 37.5845 11.7943 37.5712C12.8824 37.5845 13.9705 37.5978 15.0586 37.611C15.1929 37.611 15.3138 37.5845 15.3541 37.4386L15.3004 37.4519ZM9.00014 5.24828C8.90611 5.20849 8.81208 5.14217 8.71804 5.14217C6.91798 5.14217 5.13135 5.14217 3.33129 5.14217C3.23726 5.14217 3.14322 5.20849 3.04919 5.23501C2.90142 5.36765 2.94172 5.54007 2.94172 5.69923C2.96859 7.50306 3.30442 9.24056 4.12385 10.8852C5.23882 13.14 6.98515 14.7051 9.18821 15.8855C9.28224 15.6468 9.22851 15.4744 9.14791 15.3019C9.06731 15.1295 9.14791 14.9438 9.24194 14.7714L9.20164 14.599C9.20164 14.599 9.20164 14.4796 9.20164 14.4266C9.21508 14.3205 9.24194 14.2276 9.24194 14.1215C9.24194 11.3494 9.24194 8.57739 9.24194 5.80534C9.24194 5.65944 9.26881 5.51354 9.13448 5.39417C9.08074 5.34112 9.02701 5.30133 8.98671 5.24828H9.00014ZM33.9055 5.39417C33.7846 5.50028 33.798 5.65944 33.798 5.80534C33.798 8.67024 33.798 11.5351 33.8115 14.4C33.7577 14.7449 33.8786 15.103 33.7174 15.4478C33.6637 15.5672 33.61 15.7396 33.7846 15.8325C33.9055 15.8988 34.013 15.7927 34.1204 15.7396C35.7459 14.9704 37.0354 13.8164 38.1235 12.4105C38.9833 11.2964 39.5206 10.0098 39.7221 8.64371C39.8564 7.72853 40.0176 6.81336 40.0714 5.88492C40.0982 5.4207 40.0714 5.26154 39.5609 5.26154C37.8549 5.28807 36.1488 5.26154 34.4428 5.26154C34.2548 5.26154 34.0533 5.22175 33.9055 5.38091V5.39417ZM18.4169 24.2813C18.4169 24.2813 18.296 24.1752 18.2288 24.1354C16.5362 23.008 15.0854 21.6551 14.1048 19.8513C13.057 17.9281 12.3719 15.9121 12.3988 13.6838C12.4391 10.1027 12.3988 6.52156 12.3988 2.94044C12.3988 1.37536 12.3988 1.40188 10.8136 1.37536C10.2494 1.37536 10.1017 1.53452 10.1151 2.07832C10.142 5.91145 10.1285 9.74457 10.1151 13.5777C10.1151 14.1215 10.2226 14.652 10.33 15.1693C10.948 18.1271 12.4391 20.5675 14.8302 22.4509C15.878 23.2733 17.0601 23.9099 18.4035 24.2813H18.4169ZM15.166 42.744C16.0258 42.744 16.8855 42.744 17.7587 42.744C18.1079 42.744 18.2423 42.6511 18.2423 42.2797C18.2288 41.0595 18.2288 39.826 18.2423 38.6058C18.2423 38.2742 18.1617 38.115 17.7855 38.115C16.0661 38.115 14.3332 38.115 12.6137 38.115C12.2913 38.115 12.157 38.2079 12.157 38.5395C12.157 39.7862 12.1704 41.033 12.157 42.2797C12.157 42.6379 12.3047 42.744 12.6406 42.744C13.4869 42.7307 14.3197 42.744 15.166 42.744ZM19.2498 30.0907C19.2498 31.3639 19.2632 32.624 19.2498 33.8973C19.2498 34.3482 19.4647 34.4278 19.8274 34.388C20.1364 34.3615 20.5259 34.5206 20.5259 33.9503C20.5125 31.4303 20.5125 28.9235 20.5259 26.4034C20.5259 25.8464 20.1767 25.9127 19.8005 25.8862C19.3841 25.8596 19.2498 26.0055 19.2498 26.4167C19.2766 27.6369 19.2498 28.8704 19.2498 30.0907ZM18.2288 37.5049C18.793 37.5049 19.3707 37.5049 19.9349 37.5049C20.2573 37.5049 20.405 37.4121 20.3916 37.0805C20.3782 36.5632 20.3916 36.0459 20.3916 35.5154C20.3916 35.2103 20.2573 35.1175 19.9617 35.1175C18.8199 35.1175 17.6781 35.1175 16.5497 35.1175C16.187 35.1175 16.0661 35.3032 16.0795 35.6215C16.0795 36.099 16.0929 36.5765 16.0795 37.054C16.0795 37.3855 16.2004 37.5049 16.5228 37.4916C17.087 37.4784 17.6646 37.4916 18.2288 37.4916V37.5049Z" fill="#F2B332"/>
<path d="M33.3276 0.619357C31.7828 0.619357 30.2514 0.645884 28.7066 0.645884C22.5944 0.645884 16.4823 0.645884 10.3701 0.645884C10.1552 0.645884 9.9537 0.63262 9.73877 0.619357C9.94027 0.460196 10.1821 0.513249 10.4104 0.513249C17.8525 0.513249 25.2811 0.513249 32.7232 0.513249C32.9247 0.513249 33.153 0.460196 33.3276 0.619357Z" fill="#F8D16A"/>
<path d="M11.7676 43.3938C13.1781 43.3938 14.5886 43.3673 15.9991 43.3673C20.741 43.3673 25.483 43.3673 30.2249 43.3673C30.5339 43.3673 30.8563 43.3938 31.1653 43.4071C30.9772 43.5397 30.7623 43.4999 30.5473 43.4999C24.5024 43.4999 18.4574 43.4999 12.4124 43.4999C12.184 43.4999 11.9422 43.5663 11.7407 43.4071L11.7676 43.3938Z" fill="#F8D16A"/>
<path d="M9.12118 2.37012C9.08088 2.74149 8.79878 2.62212 8.58384 2.63539C6.13898 2.63539 3.70756 2.63539 1.2627 2.63539C1.46419 2.31706 1.78659 2.42317 2.05526 2.42317C4.40609 2.40991 6.75692 2.39664 9.10774 2.38338L9.12118 2.37012Z" fill="#F8D16A"/>
<path d="M41.6429 2.51603C39.198 2.51603 36.7666 2.51603 34.3217 2.51603C34.1471 2.51603 33.9322 2.58235 33.8247 2.35687C36.2158 2.37014 38.5935 2.3834 40.9847 2.40993C41.213 2.40993 41.4548 2.34361 41.6429 2.51603Z" fill="#F8D16A"/>
<path d="M31.6355 43.0623C31.6355 41.3381 31.6355 39.6271 31.6355 37.9028C31.7698 37.9691 31.7564 38.1018 31.7564 38.2212C31.7564 39.7067 31.7564 41.1922 31.7564 42.6644C31.7564 42.797 31.7833 42.9562 31.6221 43.049L31.6355 43.0623Z" fill="#F8D16A"/>
<path d="M15.3005 37.4519C15.2602 37.5978 15.1393 37.6243 15.005 37.6243C13.9169 37.6111 12.8288 37.5978 11.7407 37.5845C12.4796 37.3723 13.2318 37.5315 13.9841 37.4917C14.4274 37.4652 14.8572 37.4652 15.3005 37.4519Z" fill="#F8D16A"/>
<path d="M31.313 37.5845C30.2249 37.5845 29.1502 37.611 28.0621 37.6243C27.9412 37.6243 27.8069 37.6243 27.7397 37.4784C28.7069 37.4784 29.6741 37.4784 30.6413 37.4784C30.8697 37.4784 31.1115 37.412 31.313 37.5845Z" fill="#F8D16A"/>
<path d="M24.5827 26.8809C24.6095 26.4564 24.4215 26.0188 24.7036 25.6208C24.623 26.032 24.7842 26.4697 24.5827 26.8809Z" fill="#F8D16A"/>
<path d="M24.583 29.1357C24.583 29.0031 24.583 28.8837 24.583 28.7511C24.7039 28.8837 24.7039 29.0031 24.583 29.1357Z" fill="#F8D16A"/>
<path d="M24.583 31.1252C24.583 30.9926 24.583 30.8732 24.583 30.7406C24.7039 30.8732 24.7039 30.9926 24.583 31.1252Z" fill="#F8D16A"/>
<path d="M27.4845 34.6268C27.3636 34.6268 27.2696 34.587 27.2158 34.4676C27.3636 34.4278 27.4308 34.5074 27.4845 34.6268Z" fill="#F8D16A"/>
<path d="M24.677 34.3881C24.677 34.3881 24.6099 34.2952 24.583 34.2422C24.6099 34.2952 24.6502 34.335 24.677 34.3881Z" fill="#F8D16A"/>
<path d="M27.6726 34.8788C27.6726 34.8788 27.6323 34.8125 27.6055 34.7727C27.6726 34.786 27.6995 34.8125 27.6726 34.8788Z" fill="#F8D16A"/>
<path d="M11.4046 37.863C11.4046 37.863 11.3508 37.9559 11.3374 38.0089C11.3643 37.9559 11.3911 37.9161 11.4046 37.863Z" fill="#F8D16A"/>
<path d="M18.4168 24.2813C17.0734 23.9099 15.9047 23.2866 14.8435 22.451C12.4524 20.5676 10.9478 18.1271 10.3434 15.1694C10.2359 14.6388 10.1284 14.1215 10.1284 13.5777C10.1284 9.74461 10.1419 5.91149 10.1284 2.07836C10.1284 1.53456 10.2628 1.36213 10.827 1.3754C12.4121 1.40192 12.4121 1.3754 12.4121 2.94048C12.4121 6.5216 12.4389 10.1027 12.4121 13.6839C12.3852 15.9121 13.0703 17.9149 14.1181 19.8513C15.0987 21.6552 16.5495 22.9948 18.2421 24.1354C18.3093 24.1752 18.363 24.2283 18.4302 24.2813H18.4168Z" fill="#F8D16A"/>
<path d="M15.1793 42.7439C14.333 42.7439 13.5002 42.7439 12.6539 42.7439C12.3046 42.7439 12.1568 42.6511 12.1703 42.2797C12.1837 41.0329 12.1703 39.7862 12.1703 38.5394C12.1703 38.2078 12.3046 38.115 12.627 38.115C14.3465 38.115 16.0794 38.115 17.7988 38.115C18.175 38.115 18.2556 38.2741 18.2556 38.6057C18.2556 39.826 18.2421 41.0595 18.2556 42.2797C18.2556 42.6378 18.1078 42.7439 17.772 42.7439C16.9122 42.7307 16.0525 42.7439 15.1793 42.7439Z" fill="#F8D16A"/>
<path d="M19.2633 30.0774C19.2633 28.8572 19.2767 27.6237 19.2633 26.4034C19.2633 25.9923 19.3976 25.8464 19.814 25.8729C20.1767 25.8994 20.5394 25.8464 20.5394 26.3902C20.5394 28.9102 20.5394 31.417 20.5394 33.9371C20.5394 34.5074 20.1499 34.3482 19.8409 34.3747C19.4782 34.4145 19.2498 34.335 19.2633 33.884C19.2901 32.6107 19.2633 31.3507 19.2633 30.0774Z" fill="#F8D16A"/>
<path d="M18.242 37.4917C17.6778 37.4917 17.1002 37.4917 16.536 37.4917C16.2136 37.4917 16.0793 37.3856 16.0927 37.054C16.1061 36.5765 16.0927 36.099 16.0927 35.6216C16.0927 35.29 16.2136 35.1176 16.5629 35.1176C17.7047 35.1176 18.8465 35.1176 19.9749 35.1176C20.257 35.1176 20.4048 35.2104 20.4048 35.5155C20.4048 36.0327 20.3914 36.5633 20.4048 37.0805C20.4048 37.4121 20.2705 37.5182 19.9481 37.505C19.3839 37.4917 18.8062 37.505 18.242 37.505V37.4917Z" fill="#F8D16A"/>
<path d="M9.21488 14.4133C9.18801 14.3337 9.13428 14.2541 9.13428 14.1878C9.13428 11.2566 9.13428 8.31214 9.16114 5.38092C9.28204 5.50029 9.26861 5.64619 9.26861 5.79209C9.26861 8.56414 9.26861 11.3362 9.26861 14.1082C9.26861 14.2144 9.24174 14.3072 9.22831 14.4133H9.21488Z" fill="#F8D16A"/>
<path d="M33.9187 5.38092C33.9187 8.27235 33.9187 11.1638 33.9322 14.0419C33.9322 14.1613 33.9322 14.2939 33.8247 14.3868C33.8247 11.5219 33.8247 8.65698 33.8113 5.79209C33.8113 5.64619 33.7844 5.50029 33.9187 5.38092Z" fill="#F8D16A"/>
<path d="M9.00027 5.2483C7.01214 5.28809 5.03745 5.31462 3.04932 5.2483C3.14335 5.20851 3.23738 5.15546 3.33142 5.15546C5.13148 5.15546 6.91811 5.15546 8.71817 5.15546C8.8122 5.15546 8.90624 5.22177 9.00027 5.26156V5.2483Z" fill="#F8D16A"/>
<path d="M9.25522 14.7582C9.17462 14.7184 9.14775 14.6653 9.22835 14.5858C9.22835 14.6388 9.25522 14.6919 9.25522 14.7582Z" fill="#F8D16A"/>
</g>
<defs>
<clipPath id="clip0_328_9873">
<rect width="43" height="43" fill="white" transform="translate(0 0.5)"/>
</clipPath>
</defs>
</svg>
